<mxfile host="65bd71144e">
    <diagram id="BRhGFeSB--5FwTa1xaHj" name="Page-1">
        <mxGraphModel dx="1072" dy="295" grid="1" gridSize="10" guides="1" tooltips="1" connect="1" arrows="1" fold="1" page="1" pageScale="1" pageWidth="850" pageHeight="1100" math="0" shadow="0">
            <root>
                <mxCell id="0"/>
                <mxCell id="1" parent="0"/>
                <mxCell id="17" value="Cliente" style="swimlane;fontStyle=0;childLayout=stackLayout;horizontal=1;startSize=26;fillColor=none;horizontalStack=0;resizeParent=1;resizeParentMax=0;resizeLast=0;collapsible=1;marginBottom=0;" parent="1" vertex="1">
                    <mxGeometry x="40" y="80" width="180" height="338" as="geometry"/>
                </mxCell>
                <mxCell id="18" value="_id: ObjectId" style="text;strokeColor=none;fillColor=none;align=left;verticalAlign=top;spacingLeft=4;spacingRight=4;overflow=hidden;rotatable=0;points=[[0,0.5],[1,0.5]];portConstraint=eastwest;" parent="17" vertex="1">
                    <mxGeometry y="26" width="180" height="26" as="geometry"/>
                </mxCell>
                <mxCell id="19" value="nome: String" style="text;strokeColor=none;fillColor=none;align=left;verticalAlign=top;spacingLeft=4;spacingRight=4;overflow=hidden;rotatable=0;points=[[0,0.5],[1,0.5]];portConstraint=eastwest;" parent="17" vertex="1">
                    <mxGeometry y="52" width="180" height="26" as="geometry"/>
                </mxCell>
                <mxCell id="20" value="cpf: String (unique)" style="text;strokeColor=none;fillColor=none;align=left;verticalAlign=top;spacingLeft=4;spacingRight=4;overflow=hidden;rotatable=0;points=[[0,0.5],[1,0.5]];portConstraint=eastwest;" parent="17" vertex="1">
                    <mxGeometry y="78" width="180" height="26" as="geometry"/>
                </mxCell>
                <mxCell id="42" value="data_nascimento: DateTime?" style="text;strokeColor=none;fillColor=none;align=left;verticalAlign=top;spacingLeft=4;spacingRight=4;overflow=hidden;rotatable=0;points=[[0,0.5],[1,0.5]];portConstraint=eastwest;" parent="17" vertex="1">
                    <mxGeometry y="104" width="180" height="26" as="geometry"/>
                </mxCell>
                <mxCell id="33" value="logradouro: String" style="text;strokeColor=none;fillColor=none;align=left;verticalAlign=top;spacingLeft=4;spacingRight=4;overflow=hidden;rotatable=0;points=[[0,0.5],[1,0.5]];portConstraint=eastwest;" parent="17" vertex="1">
                    <mxGeometry y="130" width="180" height="26" as="geometry"/>
                </mxCell>
                <mxCell id="34" value="num_casa: String" style="text;strokeColor=none;fillColor=none;align=left;verticalAlign=top;spacingLeft=4;spacingRight=4;overflow=hidden;rotatable=0;points=[[0,0.5],[1,0.5]];portConstraint=eastwest;" parent="17" vertex="1">
                    <mxGeometry y="156" width="180" height="26" as="geometry"/>
                </mxCell>
                <mxCell id="35" value="bairro: String" style="text;strokeColor=none;fillColor=none;align=left;verticalAlign=top;spacingLeft=4;spacingRight=4;overflow=hidden;rotatable=0;points=[[0,0.5],[1,0.5]];portConstraint=eastwest;" parent="17" vertex="1">
                    <mxGeometry y="182" width="180" height="26" as="geometry"/>
                </mxCell>
                <mxCell id="36" value="complemento: String?" style="text;strokeColor=none;fillColor=none;align=left;verticalAlign=top;spacingLeft=4;spacingRight=4;overflow=hidden;rotatable=0;points=[[0,0.5],[1,0.5]];portConstraint=eastwest;" parent="17" vertex="1">
                    <mxGeometry y="208" width="180" height="26" as="geometry"/>
                </mxCell>
                <mxCell id="37" value="municipio: String" style="text;strokeColor=none;fillColor=none;align=left;verticalAlign=top;spacingLeft=4;spacingRight=4;overflow=hidden;rotatable=0;points=[[0,0.5],[1,0.5]];portConstraint=eastwest;" parent="17" vertex="1">
                    <mxGeometry y="234" width="180" height="26" as="geometry"/>
                </mxCell>
                <mxCell id="39" value="uf: String" style="text;strokeColor=none;fillColor=none;align=left;verticalAlign=top;spacingLeft=4;spacingRight=4;overflow=hidden;rotatable=0;points=[[0,0.5],[1,0.5]];portConstraint=eastwest;" parent="17" vertex="1">
                    <mxGeometry y="260" width="180" height="26" as="geometry"/>
                </mxCell>
                <mxCell id="38" value="telefone: String" style="text;strokeColor=none;fillColor=none;align=left;verticalAlign=top;spacingLeft=4;spacingRight=4;overflow=hidden;rotatable=0;points=[[0,0.5],[1,0.5]];portConstraint=eastwest;" parent="17" vertex="1">
                    <mxGeometry y="286" width="180" height="26" as="geometry"/>
                </mxCell>
                <mxCell id="40" value="email: String" style="text;strokeColor=none;fillColor=none;align=left;verticalAlign=top;spacingLeft=4;spacingRight=4;overflow=hidden;rotatable=0;points=[[0,0.5],[1,0.5]];portConstraint=eastwest;" parent="17" vertex="1">
                    <mxGeometry y="312" width="180" height="26" as="geometry"/>
                </mxCell>
                <mxCell id="25" value="Produto" style="swimlane;fontStyle=0;childLayout=stackLayout;horizontal=1;startSize=26;fillColor=none;horizontalStack=0;resizeParent=1;resizeParentMax=0;resizeLast=0;collapsible=1;marginBottom=0;" parent="1" vertex="1">
                    <mxGeometry x="800" y="80" width="150" height="182" as="geometry"/>
                </mxCell>
                <mxCell id="26" value="_id: ObjectId" style="text;strokeColor=none;fillColor=none;align=left;verticalAlign=top;spacingLeft=4;spacingRight=4;overflow=hidden;rotatable=0;points=[[0,0.5],[1,0.5]];portConstraint=eastwest;" parent="25" vertex="1">
                    <mxGeometry y="26" width="150" height="26" as="geometry"/>
                </mxCell>
                <mxCell id="27" value="descricao: String" style="text;strokeColor=none;fillColor=none;align=left;verticalAlign=top;spacingLeft=4;spacingRight=4;overflow=hidden;rotatable=0;points=[[0,0.5],[1,0.5]];portConstraint=eastwest;" parent="25" vertex="1">
                    <mxGeometry y="52" width="150" height="26" as="geometry"/>
                </mxCell>
                <mxCell id="28" value="unidade_medida: String" style="text;strokeColor=none;fillColor=none;align=left;verticalAlign=top;spacingLeft=4;spacingRight=4;overflow=hidden;rotatable=0;points=[[0,0.5],[1,0.5]];portConstraint=eastwest;" parent="25" vertex="1">
                    <mxGeometry y="78" width="150" height="26" as="geometry"/>
                </mxCell>
                <mxCell id="46" value="quantidade: Double" style="text;strokeColor=none;fillColor=none;align=left;verticalAlign=top;spacingLeft=4;spacingRight=4;overflow=hidden;rotatable=0;points=[[0,0.5],[1,0.5]];portConstraint=eastwest;" parent="25" vertex="1">
                    <mxGeometry y="104" width="150" height="26" as="geometry"/>
                </mxCell>
                <mxCell id="47" value="valor_unitario: Double" style="text;strokeColor=none;fillColor=none;align=left;verticalAlign=top;spacingLeft=4;spacingRight=4;overflow=hidden;rotatable=0;points=[[0,0.5],[1,0.5]];portConstraint=eastwest;" parent="25" vertex="1">
                    <mxGeometry y="130" width="150" height="26" as="geometry"/>
                </mxCell>
                <mxCell id="90" value="fornecedor: [Fornecedor]" style="text;strokeColor=none;fillColor=none;align=left;verticalAlign=top;spacingLeft=4;spacingRight=4;overflow=hidden;rotatable=0;points=[[0,0.5],[1,0.5]];portConstraint=eastwest;" parent="25" vertex="1">
                    <mxGeometry y="156" width="150" height="26" as="geometry"/>
                </mxCell>
                <mxCell id="29" value="Venda" style="swimlane;fontStyle=0;childLayout=stackLayout;horizontal=1;startSize=26;fillColor=none;horizontalStack=0;resizeParent=1;resizeParentMax=0;resizeLast=0;collapsible=1;marginBottom=0;" parent="1" vertex="1">
                    <mxGeometry x="320" y="80" width="140" height="156" as="geometry"/>
                </mxCell>
                <mxCell id="64" value="produto: ???" style="text;strokeColor=none;fillColor=none;align=left;verticalAlign=top;spacingLeft=4;spacingRight=4;overflow=hidden;rotatable=0;points=[[0,0.5],[1,0.5]];portConstraint=eastwest;" parent="29" vertex="1">
                    <mxGeometry y="26" width="140" height="26" as="geometry"/>
                </mxCell>
                <mxCell id="30" value="_id: ObjectId" style="text;strokeColor=none;fillColor=none;align=left;verticalAlign=top;spacingLeft=4;spacingRight=4;overflow=hidden;rotatable=0;points=[[0,0.5],[1,0.5]];portConstraint=eastwest;" parent="29" vertex="1">
                    <mxGeometry y="52" width="140" height="26" as="geometry"/>
                </mxCell>
                <mxCell id="31" value="num_venda: int" style="text;strokeColor=none;fillColor=none;align=left;verticalAlign=top;spacingLeft=4;spacingRight=4;overflow=hidden;rotatable=0;points=[[0,0.5],[1,0.5]];portConstraint=eastwest;" parent="29" vertex="1">
                    <mxGeometry y="78" width="140" height="26" as="geometry"/>
                </mxCell>
                <mxCell id="32" value="data_venda: DateTime" style="text;strokeColor=none;fillColor=none;align=left;verticalAlign=top;spacingLeft=4;spacingRight=4;overflow=hidden;rotatable=0;points=[[0,0.5],[1,0.5]];portConstraint=eastwest;" parent="29" vertex="1">
                    <mxGeometry y="104" width="140" height="26" as="geometry"/>
                </mxCell>
                <mxCell id="74" value="cliente: Cliente" style="text;strokeColor=none;fillColor=none;align=left;verticalAlign=top;spacingLeft=4;spacingRight=4;overflow=hidden;rotatable=0;points=[[0,0.5],[1,0.5]];portConstraint=eastwest;" parent="29" vertex="1">
                    <mxGeometry y="130" width="140" height="26" as="geometry"/>
                </mxCell>
                <mxCell id="61" value="ItemVenda" style="swimlane;fontStyle=0;childLayout=stackLayout;horizontal=1;startSize=26;fillColor=none;horizontalStack=0;resizeParent=1;resizeParentMax=0;resizeLast=0;collapsible=1;marginBottom=0;" parent="1" vertex="1">
                    <mxGeometry x="560" y="80" width="140" height="104" as="geometry"/>
                </mxCell>
                <mxCell id="62" value="_id: ObjectId" style="text;strokeColor=none;fillColor=none;align=left;verticalAlign=top;spacingLeft=4;spacingRight=4;overflow=hidden;rotatable=0;points=[[0,0.5],[1,0.5]];portConstraint=eastwest;" parent="61" vertex="1">
                    <mxGeometry y="26" width="140" height="26" as="geometry"/>
                </mxCell>
                <mxCell id="63" value="num_Item: int" style="text;strokeColor=none;fillColor=none;align=left;verticalAlign=top;spacingLeft=4;spacingRight=4;overflow=hidden;rotatable=0;points=[[0,0.5],[1,0.5]];portConstraint=eastwest;" parent="61" vertex="1">
                    <mxGeometry y="52" width="140" height="26" as="geometry"/>
                </mxCell>
                <mxCell id="65" value="quantidade: Double" style="text;strokeColor=none;fillColor=none;align=left;verticalAlign=top;spacingLeft=4;spacingRight=4;overflow=hidden;rotatable=0;points=[[0,0.5],[1,0.5]];portConstraint=eastwest;" parent="61" vertex="1">
                    <mxGeometry y="78" width="140" height="26" as="geometry"/>
                </mxCell>
                <mxCell id="69" value="" style="endArrow=diamondThin;endFill=0;endSize=24;html=1;exitX=0.998;exitY=0.036;exitDx=0;exitDy=0;exitPerimeter=0;entryX=-0.01;entryY=0.093;entryDx=0;entryDy=0;entryPerimeter=0;" parent="1" source="17" target="29" edge="1">
                    <mxGeometry width="160" relative="1" as="geometry">
                        <mxPoint x="240" y="90" as="sourcePoint"/>
                        <mxPoint x="290" y="120" as="targetPoint"/>
                    </mxGeometry>
                </mxCell>
                <mxCell id="70" value="1" style="edgeLabel;html=1;align=center;verticalAlign=middle;resizable=0;points=[];" parent="69" vertex="1" connectable="0">
                    <mxGeometry x="-0.5187" y="-1" relative="1" as="geometry">
                        <mxPoint x="-11" y="-13" as="offset"/>
                    </mxGeometry>
                </mxCell>
                <mxCell id="71" value="0..*" style="edgeLabel;html=1;align=center;verticalAlign=middle;resizable=0;points=[];" parent="69" vertex="1" connectable="0">
                    <mxGeometry x="0.3149" y="3" relative="1" as="geometry">
                        <mxPoint x="-7" y="-10" as="offset"/>
                    </mxGeometry>
                </mxCell>
                <mxCell id="21" value="Fornecedor" style="swimlane;fontStyle=0;childLayout=stackLayout;horizontal=1;startSize=26;fillColor=none;horizontalStack=0;resizeParent=1;resizeParentMax=0;resizeLast=0;collapsible=1;marginBottom=0;" parent="1" vertex="1">
                    <mxGeometry x="1040" y="80" width="140" height="338" as="geometry"/>
                </mxCell>
                <mxCell id="22" value="_id: ObjectId" style="text;strokeColor=none;fillColor=none;align=left;verticalAlign=top;spacingLeft=4;spacingRight=4;overflow=hidden;rotatable=0;points=[[0,0.5],[1,0.5]];portConstraint=eastwest;" parent="21" vertex="1">
                    <mxGeometry y="26" width="140" height="26" as="geometry"/>
                </mxCell>
                <mxCell id="23" value="razao_social: String" style="text;strokeColor=none;fillColor=none;align=left;verticalAlign=top;spacingLeft=4;spacingRight=4;overflow=hidden;rotatable=0;points=[[0,0.5],[1,0.5]];portConstraint=eastwest;" parent="21" vertex="1">
                    <mxGeometry y="52" width="140" height="26" as="geometry"/>
                </mxCell>
                <mxCell id="24" value="nome_fantasia: String" style="text;strokeColor=none;fillColor=none;align=left;verticalAlign=top;spacingLeft=4;spacingRight=4;overflow=hidden;rotatable=0;points=[[0,0.5],[1,0.5]];portConstraint=eastwest;" parent="21" vertex="1">
                    <mxGeometry y="78" width="140" height="26" as="geometry"/>
                </mxCell>
                <mxCell id="50" value="cpnj: String (unique)" style="text;strokeColor=none;fillColor=none;align=left;verticalAlign=top;spacingLeft=4;spacingRight=4;overflow=hidden;rotatable=0;points=[[0,0.5],[1,0.5]];portConstraint=eastwest;" parent="21" vertex="1">
                    <mxGeometry y="104" width="140" height="26" as="geometry"/>
                </mxCell>
                <mxCell id="51" value="logradouro: String" style="text;strokeColor=none;fillColor=none;align=left;verticalAlign=top;spacingLeft=4;spacingRight=4;overflow=hidden;rotatable=0;points=[[0,0.5],[1,0.5]];portConstraint=eastwest;" parent="21" vertex="1">
                    <mxGeometry y="130" width="140" height="26" as="geometry"/>
                </mxCell>
                <mxCell id="52" value="num_casa: String" style="text;strokeColor=none;fillColor=none;align=left;verticalAlign=top;spacingLeft=4;spacingRight=4;overflow=hidden;rotatable=0;points=[[0,0.5],[1,0.5]];portConstraint=eastwest;" parent="21" vertex="1">
                    <mxGeometry y="156" width="140" height="26" as="geometry"/>
                </mxCell>
                <mxCell id="53" value="bairro: String" style="text;strokeColor=none;fillColor=none;align=left;verticalAlign=top;spacingLeft=4;spacingRight=4;overflow=hidden;rotatable=0;points=[[0,0.5],[1,0.5]];portConstraint=eastwest;" parent="21" vertex="1">
                    <mxGeometry y="182" width="140" height="26" as="geometry"/>
                </mxCell>
                <mxCell id="54" value="complemento: String?&#10;" style="text;strokeColor=none;fillColor=none;align=left;verticalAlign=top;spacingLeft=4;spacingRight=4;overflow=hidden;rotatable=0;points=[[0,0.5],[1,0.5]];portConstraint=eastwest;" parent="21" vertex="1">
                    <mxGeometry y="208" width="140" height="26" as="geometry"/>
                </mxCell>
                <mxCell id="55" value="municipio: String" style="text;strokeColor=none;fillColor=none;align=left;verticalAlign=top;spacingLeft=4;spacingRight=4;overflow=hidden;rotatable=0;points=[[0,0.5],[1,0.5]];portConstraint=eastwest;" parent="21" vertex="1">
                    <mxGeometry y="234" width="140" height="26" as="geometry"/>
                </mxCell>
                <mxCell id="56" value="uf: String" style="text;strokeColor=none;fillColor=none;align=left;verticalAlign=top;spacingLeft=4;spacingRight=4;overflow=hidden;rotatable=0;points=[[0,0.5],[1,0.5]];portConstraint=eastwest;" parent="21" vertex="1">
                    <mxGeometry y="260" width="140" height="26" as="geometry"/>
                </mxCell>
                <mxCell id="57" value="telefone: String" style="text;strokeColor=none;fillColor=none;align=left;verticalAlign=top;spacingLeft=4;spacingRight=4;overflow=hidden;rotatable=0;points=[[0,0.5],[1,0.5]];portConstraint=eastwest;" parent="21" vertex="1">
                    <mxGeometry y="286" width="140" height="26" as="geometry"/>
                </mxCell>
                <mxCell id="58" value="email: String" style="text;strokeColor=none;fillColor=none;align=left;verticalAlign=top;spacingLeft=4;spacingRight=4;overflow=hidden;rotatable=0;points=[[0,0.5],[1,0.5]];portConstraint=eastwest;" parent="21" vertex="1">
                    <mxGeometry y="312" width="140" height="26" as="geometry"/>
                </mxCell>
                <mxCell id="76" value="" style="endArrow=diamondThin;endFill=1;endSize=24;html=1;entryX=0;entryY=0.077;entryDx=0;entryDy=0;entryPerimeter=0;exitX=1;exitY=0.077;exitDx=0;exitDy=0;exitPerimeter=0;" parent="1" source="29" target="61" edge="1">
                    <mxGeometry width="160" relative="1" as="geometry">
                        <mxPoint x="480" y="100" as="sourcePoint"/>
                        <mxPoint x="540" y="90" as="targetPoint"/>
                    </mxGeometry>
                </mxCell>
                <mxCell id="81" value="1" style="edgeLabel;html=1;align=center;verticalAlign=middle;resizable=0;points=[];" parent="76" vertex="1" connectable="0">
                    <mxGeometry x="-0.7653" relative="1" as="geometry">
                        <mxPoint y="-10" as="offset"/>
                    </mxGeometry>
                </mxCell>
                <mxCell id="82" value="0..*" style="edgeLabel;html=1;align=center;verticalAlign=middle;resizable=0;points=[];" parent="76" vertex="1" connectable="0">
                    <mxGeometry x="0.3547" y="1" relative="1" as="geometry">
                        <mxPoint y="-9" as="offset"/>
                    </mxGeometry>
                </mxCell>
                <mxCell id="78" value="" style="endArrow=diamondThin;endFill=0;endSize=24;html=1;exitX=0;exitY=0.064;exitDx=0;exitDy=0;exitPerimeter=0;entryX=1.004;entryY=0.081;entryDx=0;entryDy=0;entryPerimeter=0;" parent="1" source="25" target="61" edge="1">
                    <mxGeometry width="160" relative="1" as="geometry">
                        <mxPoint x="580" y="260" as="sourcePoint"/>
                        <mxPoint x="740" y="260" as="targetPoint"/>
                    </mxGeometry>
                </mxCell>
                <mxCell id="79" value="0..*" style="edgeLabel;html=1;align=center;verticalAlign=middle;resizable=0;points=[];" parent="78" vertex="1" connectable="0">
                    <mxGeometry x="0.4399" y="-2" relative="1" as="geometry">
                        <mxPoint y="-8" as="offset"/>
                    </mxGeometry>
                </mxCell>
                <mxCell id="80" value="1" style="edgeLabel;html=1;align=center;verticalAlign=middle;resizable=0;points=[];" parent="78" vertex="1" connectable="0">
                    <mxGeometry x="-0.7668" y="-1" relative="1" as="geometry">
                        <mxPoint y="-9" as="offset"/>
                    </mxGeometry>
                </mxCell>
                <mxCell id="84" value="" style="endArrow=block;startArrow=block;endFill=1;startFill=1;html=1;exitX=0.996;exitY=0.077;exitDx=0;exitDy=0;exitPerimeter=0;entryX=0;entryY=0.036;entryDx=0;entryDy=0;entryPerimeter=0;" parent="1" source="25" target="21" edge="1">
                    <mxGeometry width="160" relative="1" as="geometry">
                        <mxPoint x="860" y="310" as="sourcePoint"/>
                        <mxPoint x="1020" y="310" as="targetPoint"/>
                    </mxGeometry>
                </mxCell>
                <mxCell id="86" value="0..*" style="edgeLabel;html=1;align=center;verticalAlign=middle;resizable=0;points=[];" parent="84" vertex="1" connectable="0">
                    <mxGeometry x="-0.7025" y="2" relative="1" as="geometry">
                        <mxPoint x="6" y="-10" as="offset"/>
                    </mxGeometry>
                </mxCell>
                <mxCell id="87" value="0..*" style="edgeLabel;html=1;align=center;verticalAlign=middle;resizable=0;points=[];" parent="84" vertex="1" connectable="0">
                    <mxGeometry x="0.7162" y="1" relative="1" as="geometry">
                        <mxPoint x="-5" y="-11" as="offset"/>
                    </mxGeometry>
                </mxCell>
                <mxCell id="95" value="" style="shape=stencil(lZ3Zst3GDUW/Rq+snodnx/kPV1mOVFEsl6xMfx90VDznEJtcvPfNvgIOyWY3sLEx8EP+6c9Pv/zx8UMKf37/9vXvH//9+dfvnz7kv3xI6fPvnz5++/zd/utD/vlD/um3r98+/u3b13/+/uuP///jlyW5/usfX/+1fuE/P/RK2UpYWin898df4lbq///w1x/yXz7//iqft+DlawL5uI3u5FsB+bD/3FN+wO/n4X8/bTGDfN/CcPI1gHzdYnPyk+4nb7Ee5PNWSD5sczp5+v1kz3uUtxcIz5vaNoqTnxHky9aP8nUrDeSTyk+SD1s/rmfbSr+Wj/a8w8nPAfL2fvNBvuP9x7rl7uTx97Nfz4H7P6b99ezyc4uw32LcUnPyDd5vDH5/2l8SXGDux+NFvs9r+bFFdx7jlkG+b+m4PrYCATZc24/Hi3yDBa1bj0f5jM9btzC9fCcDtFV3/2VLcP+2H4KXH7CBHnf7kK9oEJP8vq0YrH/at/tDvm+VDITsn7Ff8XzD7cfjYQ/DvkMu5IeznxENbtz68Xltxcig268d7a29wUEHft+9D/mG+8HOo3vesf/lSv54vuzEdVyf6Oy//QV/Px7vJ9t5wef18mXL75KvbBBFvm8N9qfJH+1tNgNHDsD702L2hNfT+bt897zH92WIaAAAUvn2zt/vaB/0eeeW+XmP56s+POzb3ldNaD+jt1c1b+09+79WBEAmf9wPtd88b3Z4Y24V7HP0/rfFm/WvDp88EPKVvXK/bwAF9888+rs27+zzcT/0tO/wK/t/9I/dPBr6C2dve9sR6YW8s/99or3KHs8Me+PwfvO+Gg/5jP7FvPnxfgb73+Lx4WgIEM37H9d/dMRLxfujMfG82N06fBi3APunevs5eT/U3Ro/5O2NwP03j/dmQXvbdu/zIk/2X/DhfDzRhfyMXr7C844dTb3IE56ZHg+Y/KTzHjwgWApksOLJE09CHGkHnK8KZFKSt0GTg7AFgZMokBMuEpVUtBJRt3XbiYOrOKwMUSDc12SV2h7avzEyNAU6ObH70NMU0FWOnap4VaBlnR4cmwIFV4a1Z/AKhKaXu5EroDtI+1Z7UWiw+Z58xYtCZ4ZBV4kQ+Ar55JbIBKfHHb8oEIlkRqbKsqLC2LJsDVSYHuYsBeKdgvf766HhTFvYEOQZOl0hnhxRikQt0Ki6l2B757x7+hcFil2zBNNLgZ5B2Kp14mC3WjDjLd+NQtu95RvP9CIY5RkyM5JDtgYhkkV5ynsgjsgirCnPQLu1SFA6O5I4FpOV7hUioaQsL85gP/HOdQtyBcL9KywbXoECzdIFKd0gvbkDtRcFgg4WmXms0dHt1iirNLYAW8NiM39LA9mTWvZVf1UAL2rRnOPnTSHRFdpO570q0BW6mBmztrSsYz9fb1WY+2Z+6y1ZiDZEAXZrCz7qXwpwSxaU+u09MOwxhSlXQJyePHFtm4+IspY9U78OED102QOdF4UCDqXV/UC+KCS6pSbvoe/0x7lCl61hCsRGD9kaHVFl03ijY/xm4X6WZQ2wSl0DDo7QTUEdCpmZHk+w94Qz3YU0Xg4FVskU9JYGXSHvyOIVzdAzlJNVIhhqCv4AMdDtavkYSvcmxrgh1dOb51Zu4E/X4Lih2+3DZwdmw93ap9ililbDFDxYr+h2R5BbqpiBHsIgmwJ5IFMYEuKTqRwKdC1mgb20KKrhFQhKm4LHGgWR8SieFjMF8nGjet52ch7LFLrcEtnWIZm7pUDL2n0qblFLtDX6fuRfuCsyZGNIsjXjbh1TwHre9++VgkdkGd/0DJ6vNgXCrabg4+mMWGPG3Qq9MILE/tg/5+AVyC7ZP3siJKFTnELizoh76fleHwqPdTtXKDuyeKFZMy2rmHvbLPgM1W/vwQ5lGUbHRFeMFKeElmYWyMxM4VrNUhFd9PT7L+Q7kWoLf7lswNw995WCC2nMxXS+gsvfm9cr9NASHpsjJpf1DJEeChlLTBY0P+4lA0REtZiC2xoG6sgumUI7LqvBRqoCMQXnRQ36UoQypSzI0DgRg6bgOIEVINCyTr+sLfItzR1p7woWRiETP33qdkV2ZASm5DIb5h5MwScny/5mLhWOq7SypbxKztyXyXtpepqidK7fmb5grxQsAFgKx/dQEmbgVCHPfXe98Rlyv33o4wFaNBvfksvCZYZwa2u4K2Q294IEckTsrScuTT5AcqZXJQlbDefYE3PGyy652pmKpNqTlHgoFITSy3oft3fKSBetcNspJGSlV4jUvAKamerTCavClJa1+rAsBX5xRUqkJgOs7P20KRC6N4XoirwGFt3M5BMWpkBB0xSyP3ZMQq4sdPQKmZY1SKEd79YhRzSyjzPA5hxKrByWNZ/LWtWeYDWGZJoiFwOtsCx6BSrHNYTnaIpYEJEZwtP6xZt4elSvQJFifxSYPhQSppu7mJlVsklUS/cBhylQzVRv3tybApkZg4SqQMvai9xSxCy+YUhHlMfIDJYe0YjnwUCno09NgWJR5flMgZCAKQS5QiX6VPCSKRBYb5IXfVY/XBG0vtyfIxTDwS6BF9l6t+r9tCnQbjUFv0oBvagh7Ry9AnL3Sm5ikNWSUAL4nk3ecw7oHFZFnKMR77IbjnYcfP/Bw4zBJd7Tb4qBYW4VZHWTwxLadCADb/I+okQDaVGIi0s6rk8VqqGjpajF4wtOzNQsNXsIR2rW+yEoXJN3OR1LzGryJ6xzkjL6lAlnG1YFbHHyVKdg8i7d3TANZSGdC+crhjtl7FDrKU9smMk7cosjvNI9zmEUb/Lu/Wa+/+apYe5pMnlHqGT0GqX6QOfm96vEatyDVnx+K+N5Kdm7jIwswaow9/LERRY5LxnZoBJ9jSvHsibv/EvG2juTdz1QifdD9HU9Ce3DKidxPhvt55KXnkS+H1crFZCOK9JjFbCktEgNeUC2okSfEw7oX4r0yIS7ahuXlAtYyLj4Hv/7eL6S38+By4W05wjt/5k8FtrI/SS2z/K83CKj65kwNtb3lTGPpfsh3+0Ht98SZrF0P3M+R89LwqKIs/NI+O3svJN/V3sSuFJL7FVgeyv2MNzZz+73/439fJ982uH4G+Wzr1wOmAEx+RadPBGN5h+jt1cUIRUp9Al708OVv07+fogkKdXHO4H9S/P44ca+dV9BcGP/u/fXN/5FCtI4alZ8mHg/TE8tpL0u6grfBm9/CG8s/OzxFbWwVOkRy1igVOW8FDy/VfxFYTyffG6rIOdcs483y14rdxV/RS+Pz1s8fqtYpVOlF6IiXVYFb1dMeFo86+6/8v7pfj0rZsKrzGSoOHPA4n2337jPogXPMjU8vy164pjL21ZtpZ8JQPaqpT2cfonHqcVKqnQ75hOaVAsNJtWKT+DxjIJWPV8x9g17Je/r1LjksUlZP7egdR9fT8xlN4mXJ+7PJlldzm/2IHgmYBl2F4JsdY0RQx5lqkFghjz5ChtToDO/+OvuFejQL4ZcB0UQf139qi5mlgpbpf4lRox7ej/h4O/KHYUhp5O8ciFySxQKD6nWio+EzbmCzltIWCQ9sie/VrsfpcmKR0MxY3g46knGiErUhvChMeMBGsMD/Fg41Td9RGMKBEln8P1VpoAlOVEyRuxkV5tt8gr0HmbyUeLKb1JyPXs3ErmD61k++VDo2Es7dWt0XladnsINKFOgexxcOyLYPXI//CpRk/T9TU2by24suE8PLUmsFDE+ntKQtQA81784h5s4R6tFPwvS0i1NH/ImblubgsEWKKFlnR7Ep3lXS+UaUDJb7zmFhk2II03Bbb5cMKm7FI4+LredGrlUcM/QcbrLnL7/Nt8UVE6PrRabxe/BBzuF619Uob/3CpMtnyhUruGJIXhGv3LK40yDm4L1TdSBjncpSP0ilv1M70fbo7Hm8gi5vFZG8GAKrrG5lbs34WDis4XqSsFRre2msGhK8Sxny1ehnQuWuLZjVaq6iW6Z38Pwy9orNupooV3vSMCsQjtXxDwwonn2SD4UJm+N4be3IU0sbZXKvBHZfncJEjO/uO6j1lGwAmZKG/6zZeRKwdcJcE+joQ03+MKAIzGRq1PIRYqR37Q2mCf2ozIvxmAdFjFLYdG8sd/pZMIJ2m9Jt0/me6bk25+9DVfo27czNWT8Z5A2S4Ynq7tDeunoxI1xMkqA6hfHkB6uxoFZP+maxLCpncyxoN1qClGegYgci+R0jsVNW5k2EFKq1RRSetcV8sn8BGyNS9JFfFNH+pgH91DgYQVmGF291oopuKSyiQI2cgpyfQYhVwp+mA3HWeZvTjrSif/RxubBVEiXZR2I71e76xQFeoZ60uiPo6OKdIkNnByjHNYcmMk2ZNFE4aYT2ncRT35xSQ4Qz0/r0Q8kndzp1nVG0MT00wJscksETk5a2CfXkWqT/GTGXncrT/lbjf5yBbJLhoP9mZ5IoDbBGnMyq16ke/WmbFNGC6+Igh46nbxpKlxoUQriA6eeT+ZSTKzdacKVz4nFC1WYisltYlU61yZPWF1dZHJLWH/a/Qy/m1ddTzcTVWRW3zfwZHjOFcrJ/ia0XrPP+S4FuoIMsnyGducKkoVblozLJv0ANp6FXbrMB5lcGNXEMA1kjFYloQzYoYB6zS0SN4q1KklyUwNtZZGBrnOgYcpCbEwul17zo3ReDg2c6mKYbhSk73hyJ2duMh5toJPLOtZyYE3YmhSmg45o8Fc+WSX8skCWyG9g3iWnEwyHtxQ9wbQUbmbCCYYjynVNnZP3kMDyncy148lIJ5PzGLg+a9Xf+KZTO8Fw+Az1ZMoWLWsq0i/Bw5pWPcy74H1SWMlMSBLP/mSQzhWChCiscDKrcvCATp2GOZDdPJm3OTCddTLRk2eRncwMZd7uZCopG7KTuacDaYeTyaqPE3KuoLNb2dyfTIcdPNFa588ODCCizPy+iS2jZGvnDRd/MqWOmMRx8troPfeTIV6UPW4yzqpzhYqMg2NOQ3kcnjGsgXHBsFWGVK85OYRihDZN/FUesUYRT0GW2UOBPaEn7Ac7kSxcd0NcKB/pWKNc4FAmmbOSbz7S4c7wiFjRKAWQncPh5N34Kp3BIfnO8nYeoh59gVbnDhAZ2t8mTnOTAnKL74kkkXqrxnM9gl//lrCCP3imqk5kqoJvsLKQkjB88DxV5SHnwTuNmjFsCZ50qpzFkIY4C/Yo1SOwsUz0SUE+0sHTCIInwgsPDQqetVgf9cD7cWHgzUdDggceNx8lCR6HF/7okiS3LWajjjWV5/GKKl9vzpeXZ/sm6Z0ckcnSAvWA3IPsh8RTp6QBOXXE38HjjZtBKkEK8nnkVPDERuJW/+BR5fOEXtlDKduiUkwp4F91YWj/tVKN6sikoHoV21F0cvYRLsQb/qOE3OEp8+lWiSR+1MN3+PMUmyKTGRLOABc6MPJHanQ+xt1H2XSkAQ1NkIL/yB1EOkaRv+kk533ypxuEExv8DTEZgMAF9lFGHXeOwaqfHsLmNgof1hiOSehc+esC0rDDc26S5Fh5vmmShi9u2EknDeNk3pIwkpnhfNCGKfw2gsxX4iluyxu684j3n4WIiLj+ysAGbjgNPp69adCLnrC9aaCTjzoFXB9DU9nLYwNy0YZHzBQU35DF7RNLXu6fzHnxFGHgBj0ZuHHT8HjSIInu4kQeG36Lxw/cOFGK5zcihtdF68Qx/C0ynZjD/bUf/P1jQ+h7P1J8K2//8fwi8m+fv3z58UHl13/3X1C2P/34+nL++X8=);lineShape=1;" vertex="1" parent="1">
                    <mxGeometry x="279.95443408528445" y="39.998667385735594" width="483.9957000959646" height="215.7977338052193" as="geometry"/>
                </mxCell>
            </root>
        </mxGraphModel>
    </diagram>
</mxfile>